<svg width="24" height="24" viewBox="0 0 24 24" fill="none" xmlns="http://www.w3.org/2000/svg">
<g clip-path="url(#clip0_1057_2768)">
<path d="M5.92305 14.9551C3.27703 13.4116 3.27704 9.5884 5.92306 8.04488L17.9845 1.00903C20.6511 -0.546503 24 1.37698 24 4.46415L24 18.5359C24 21.623 20.6511 23.5465 17.9845 21.991L5.92305 14.9551Z" fill="#EE5C0A"/>
<path d="M18.0769 8.04489C20.723 9.5884 20.723 13.4116 18.0769 14.9551L6.01548 21.991C3.34885 23.5465 -1.23236e-07 21.623 -2.21366e-07 18.5359L-6.68656e-07 4.46415C-7.66786e-07 1.37698 3.34886 -0.546499 6.01548 1.00903L18.0769 8.04489Z" fill="#EE5C0A"/>
</g>
<defs>
<clipPath id="clip0_1057_2768">
<rect width="24" height="24" fill="white"/>
</clipPath>
</defs>
</svg>
